<?xml version="1.0" encoding="utf-8"?>
<!-- Generator: Adobe Illustrator 27.7.0, SVG Export Plug-In . SVG Version: 6.00 Build 0)  -->
<svg version="1.1" id="AI4S_Logo_Horizontal" xmlns="http://www.w3.org/2000/svg" xmlns:xlink="http://www.w3.org/1999/xlink"
	 x="0px" y="0px" viewBox="0 0 3976 834.5" style="enable-background:new 0 0 3976 834.5;" xml:space="preserve">
<style type="text/css">
	.st0{fill:url(#SVGID_1_);}
	.st1{fill:url(#SVGID_00000028285315007599072750000001467340893098318526_);}
	.st2{fill:url(#SVGID_00000008121937279172302220000011319945018006335624_);}
	.st3{enable-background:new    ;}
</style>
<g id="COMBINED">
	<path d="M567,141.5L567,141.5c19.9,0,36-16.1,36-36V36c0-19.9-16.1-36-36-36l0,0c-19.9,0-36,16.1-36,36v69.5
		C531,125.3,547.1,141.5,567,141.5z"/>
	<path d="M423.4,630h-0.8c-19.7,0-35.6,15.9-35.6,35.6l0,0l0,0c0,19.7,15.9,35.6,35.6,35.6l0,0h0.8c19.7,0,35.6-15.9,35.6-35.6l0,0
		C459,645.9,443.1,630,423.4,630L423.4,630z"/>
	<path d="M711.4,675.8h-0.8c-19.7,0-35.6,15.9-35.6,35.6c0,0,0,0,0,0.1l0,0c0,19.7,15.9,35.6,35.6,35.6h0.8
		c19.7,0,35.6-15.9,35.6-35.6l0,0l0,0C747,691.8,731.1,675.8,711.4,675.8C711.5,675.8,711.4,675.8,711.4,675.8z"/>
	<path d="M567,693L567,693c-19.9,0-36,16.1-36,36l0,0v69.5c0,19.9,16.1,36,36,36l0,0c19.9,0,36-16.1,36-36V729
		C603,709.1,586.9,693,567,693z"/>
	<path d="M998.3,345.9c-19.7,0.3-35.7,14.7-35.7,34.4c0,0-0.4,3.8-0.4,4.1c-3.1,16.8-17.7,27.4-35.4,27.4
		c-17.1,0-31.9-11.9-35.6-28.6c-0.2-0.8-0.3-1.7-0.3-2.5l-0.1-4.8V294c0-20.2-16.5-37.1-36.7-36.7c-19.6,0.4-35.3,16.4-35.3,36v81
		h-0.1V402c0,20.2-16.5,37.1-36.7,36.7c-19.6-0.4-35.3-16.4-35.3-36l-2.4-27.8l-68.5-0.7l-0.9-70.5c-0.4,20-16.9,35.8-36.8,35.4
		c-19.5-0.4-35.2-16.1-35.4-35.6l-1,70.8l-214.6,0.1l-0.2,10.3c-0.2,19.6-15.9,35.5-35.5,35.9c-20.2,0.4-36.7-16.5-36.7-36.7v-9.7
		l0,0v-23.8c0-20.2-16.5-37.1-36.7-36.7c-19.6,0.4-35.3,16.4-35.3,36v9.7c0,20.2-16.5,37.1-36.7,36.7c-19.6-0.4-35.3-16.4-35.3-36
		v-3.9h-0.2c-1.3-18.9-17.1-33.6-36.1-33.5c-19.9,0.1-35.8,16.8-35.8,36.6v59.8v69.5c0.3,19.9,16.7,35.7,36.6,35.4
		c18.4-0.3,33.7-14.5,35.3-32.9h0.1v-10.8c0-20.2,16.5-37.1,36.7-36.7c19.6,0.4,35.3,16.4,35.3,36V491l0,0v50.9
		c0,20.2,16.5,37.1,36.7,36.7c19.6-0.4,35.3-16.4,35.3-36v-33.3c0-0.1,0-0.1,0-0.2c2.2-18.3,17.6-32,36-32l0,0
		c18.5-0.1,34.1,13.7,36.2,32.1l71-0.1l0.2-32c0-19.9,16.5-37.9,36.3-37.9c19.8,0,37.4,18,37.4,37.9c0,0,69.8-20.8,69.9-21.4
		l1.2-32.6c0-19.9,16.1-36,36-36s36.2,15.8,36.2,35.7l71.8,86.4V505c0-20.2,16.5-37.1,36.7-36.7c19.6,0.4,35.3,16.4,35.3,36v5.1h0.1
		l0,0c0,19.6,15.7,35.6,35.3,36c20.2,0.4,36.7-16.5,36.7-36.7v-45.9h0.2c1.6-19.8,19-34.6,38.8-32.9c17.6,1.4,31.5,15.4,32.9,32.9
		h0.2c1.3,18.9,17.2,33.6,36.1,33.5c19.9-0.1,35.7-16.8,35.7-36.6v-77.1C1034.8,362.4,1018.5,345.6,998.3,345.9z"/>
	<path d="M36.4,387h-0.8C15.9,387,0,402.9,0,422.6l0,0l0,0c0,19.7,15.9,35.6,35.6,35.6l0,0h0.8c19.7,0,35.6-15.9,35.6-35.6l0,0l0,0
		C72,402.9,56.1,387,36.4,387L36.4,387z"/>
	<path d="M278.6,273.5h0.8c19.7,0,35.6-15.9,35.6-35.6l0,0l0,0c0-19.7-15.9-35.6-35.6-35.6l0,0h-0.8c-19.7,0-35.6,15.9-35.6,35.6
		l0,0C243,257.6,258.9,273.5,278.6,273.5L278.6,273.5z"/>
	<path d="M279,614.6L279,614.6c-19.9,0-36,16.1-36,36l0,0v33.5c0,19.9,16.1,36,36,36l0,0l0,0c19.9,0,36-16.1,36-36v-33.5
		C315,630.7,298.9,614.6,279,614.6L279,614.6z"/>
	<path d="M1098.4,387.8h-0.8c-19.7,0-35.6,15.9-35.6,35.6c0,0,0,0,0,0.1l0,0c0,19.7,15.9,35.6,35.6,35.6h0.8
		c19.7,0,35.6-15.9,35.6-35.6l0,0l0,0C1134,403.8,1118.1,387.8,1098.4,387.8C1098.5,387.8,1098.4,387.8,1098.4,387.8z"/>
	<path d="M855.4,581.1h-0.8c-19.7,0-35.6,15.9-35.6,35.6l0,0l0,0c0,19.7,15.9,35.6,35.6,35.6l0,0h0.8c19.7,0,35.6-15.9,35.6-35.6
		l0,0l0,0C891,597,875.1,581.1,855.4,581.1L855.4,581.1z"/>
	
		<linearGradient id="SVGID_1_" gradientUnits="userSpaceOnUse" x1="753.9437" y1="-587.0162" x2="1048.3438" y2="-881.4163" gradientTransform="matrix(1 0 0 1 -418 1177.46)">
		<stop  offset="6.000000e-02" style="stop-color:#E6007E"/>
		<stop  offset="0.49" style="stop-color:#EF545B"/>
		<stop  offset="0.94" style="stop-color:#F9B233"/>
	</linearGradient>
	<path class="st0" d="M603,280.2c0-59-47.8-106.8-106.8-106.8h-2.5c-59,0-106.8,47.8-106.8,106.8l0,0c0,1.7,0,3.3,0.1,5
		c-0.1,0.9-0.1,1.8-0.1,2.8v261c0,19.9,16.1,36,36,36s36-16.1,36-36c0,0,0.1-76.6,0.3-75.4c2-19.8,19.7-34.2,39.4-32.2
		c16.9,1.7,30.3,15,32.2,32c0.2,3.7,0.2,3.6,0.2,3.6v135c0,19.9,16.1,36,36,36s36-16.1,36-36V288c0-0.8,0-1.6-0.1-2.4
		C603,283.8,603.1,282,603,280.2L603,280.2z M531,333c0,19.9-16.1,36-36,36l0,0c-19.9,0-36-16.1-36-36v-45c0-19.9,16.1-36,36-36l0,0
		c19.9,0,36,16.1,36,36V333z"/>
	
		<linearGradient id="SVGID_00000103949959523352565130000000644661673531892670_" gradientUnits="userSpaceOnUse" x1="934.703" y1="-546.5569" x2="1253.723" y2="-865.5869" gradientTransform="matrix(1 0 0 1 -418 1177.46)">
		<stop  offset="8.000000e-02" style="stop-color:#E60D7E"/>
		<stop  offset="0.31" style="stop-color:#ED4664"/>
		<stop  offset="0.57" style="stop-color:#F3804A"/>
		<stop  offset="0.77" style="stop-color:#F7A439"/>
		<stop  offset="0.87" style="stop-color:#F9B233"/>
	</linearGradient>
	<path style="fill:url(#SVGID_00000103949959523352565130000000644661673531892670_);" d="M711,252.1L711,252.1
		c-19.9,0-36,16.1-36,36v297c0,19.9,16.1,36,36,36l0,0c19.9,0,36-16.1,36-36v-297C747,268.2,730.9,252.1,711,252.1z"/>
	
		<linearGradient id="SVGID_00000144335251910636106010000004179140826623100593_" gradientUnits="userSpaceOnUse" x1="1103.5901" y1="-989.595" x2="1154.385" y2="-1040.4" gradientTransform="matrix(1 0 0 1 -418 1177.46)">
		<stop  offset="0" style="stop-color:#E60D7E"/>
		<stop  offset="0" style="stop-color:#E6007E"/>
		<stop  offset="0" style="stop-color:#E81774"/>
		<stop  offset="0" style="stop-color:#EC3B65"/>
		<stop  offset="0" style="stop-color:#F05B57"/>
		<stop  offset="0" style="stop-color:#F3774C"/>
		<stop  offset="0" style="stop-color:#F58D43"/>
		<stop  offset="0" style="stop-color:#F79E3C"/>
		<stop  offset="0" style="stop-color:#F8A937"/>
		<stop  offset="0" style="stop-color:#F9B034"/>
		<stop  offset="0" style="stop-color:#F9B233"/>
	</linearGradient>
	<path style="fill:url(#SVGID_00000144335251910636106010000004179140826623100593_);" d="M711.4,126.8h-0.8
		c-19.7,0-35.6,15.9-35.6,35.6c0,0,0,0,0,0.1l0,0c0,19.7,15.9,35.6,35.6,35.6h0.8c19.7,0,35.6-15.9,35.6-35.6l0,0l0,0
		C747,142.8,731.1,126.8,711.4,126.8C711.5,126.8,711.4,126.8,711.4,126.8z"/>
</g>
<g id="Outline_-_TEXT_RIGHT_Myriad_Pro">
	<g class="st3">
		<path d="M1476.6,524.9H1356l-16.1,51.1h-100.7l127.7-342.3h98.3L1593.4,576h-100.2L1476.6,524.9z M1454.8,457.8L1416,337.2
			l-38.3,120.6L1454.8,457.8L1454.8,457.8z"/>
		<path d="M1622.7,233.7h96V576h-96V233.7z"/>
	</g>
	<g class="st3">
		<path d="M2000,302.6c-35.5,0-44.9,21.8-44.5,47.9v25.7h46.6v32.1h-46.6V576h-37.2V408.3h-38.5v-32.1h38.5v-20.5
			c0-52.2,21.8-88.1,75.3-88.1h21.4v35.1L2000,302.6L2000,302.6z"/>
	</g>
	<g class="st3">
		<path d="M2024.8,475.9c0-63.3,47.5-104.8,104.4-104.8S2234,412.6,2234,475.9s-47.9,105.3-104.8,105.3
			C2072.3,581.1,2024.8,539.2,2024.8,475.9z M2196.8,475.9c0-41.1-30.8-69.7-67.6-69.7c-36.4,0-66.8,28.7-66.8,69.7
			c0,41.5,30.4,70.2,66.8,70.2C2166,546,2196.8,517.4,2196.8,475.9z"/>
		<path d="M2414.2,378.7l-6,35.1c-10.7-5.1-21.4-6.8-29.1-6.8c-39.8,0-55.6,43.2-55.6,95.9V576h-37.7V376.2h37.7v45.4
			c10.3-35.1,29.5-50.5,56.1-50.5C2393.7,371,2408.2,374.9,2414.2,378.7z"/>
	</g>
	<g class="st3">
		<path d="M2544.3,510.1l74.9-7.7c6.4,15.8,22.2,26.1,43.2,26.1c20.1,0,32.5-7.3,32.5-19.3c0-41.1-145.5-12.8-143.3-106.1
			c1.3-46.6,44.5-76.2,109.5-76.2c56.5,0,102.3,24.8,111.7,67.2l-74,9c-4.7-15-17.5-24.4-34.7-24.4c-19.3,0-30.8,7.3-30.8,19.7
			c0,40.7,145.5,6,145.5,99.7c0,50.9-45.4,82.2-116.4,82.2C2595.2,580.3,2553.3,551.2,2544.3,510.1z"/>
		<path d="M2807.9,453.6c0-88.1,64.2-127.1,129.7-127.1c65,0,128.8,38.9,128.8,127.1c0,89-63.3,127.9-129.2,127.9
			C2871.6,581.6,2807.9,542.6,2807.9,453.6z M2983.7,453.2c0-37.7-19.7-59.1-46.6-59.1c-26.5,0-46.6,21.4-46.6,59.1
			c0,38.5,20.1,59.9,46.6,59.9C2964.1,513.1,2983.7,491.7,2983.7,453.2z"/>
		<path d="M3107.8,468.6V331.7h83V460c0,35.9,10.3,51.8,39.4,51.8c28.7,0,39.4-18,39.4-53.5V331.7h83v244.8h-83v-33.8
			c-11.6,23.1-38.5,38.5-71,38.5C3134.8,581.1,3107.8,545.6,3107.8,468.6z"/>
		<path d="M3406.1,331.2h83V365c11.6-23.1,38.5-38.5,71-38.5c63.8,0,90.7,35.5,90.7,112.5v137h-83V447.6c0-35.9-12.4-51.8-39.4-51.8
			c-28.7,0-39.4,17.5-39.4,53.5V576h-83L3406.1,331.2L3406.1,331.2z"/>
		<path d="M3692.3,453.6c0-80,43.2-127.5,104.4-127.5c30.8,0,58.6,15.8,68.9,39.8V251.6h83.4v323.9h-83.4V543
			c-10.3,23.1-38.5,38.5-68.9,38.5C3736,581.6,3692.3,533.2,3692.3,453.6z M3868.6,453.2c0-37.7-19.7-59.1-46.6-59.1
			c-26.5,0-46.6,21.4-46.6,59.1c0,38.5,20.1,59.9,46.6,59.9C3848.9,513.1,3868.6,491.7,3868.6,453.2z"/>
	</g>
</g>
</svg>
