<svg id="CVSSP_LOGO" xmlns="http://www.w3.org/2000/svg" viewBox="0 0 1988.75 295.89"><defs><style>.cls-1{fill:#1d1d1b;}</style></defs><title>CVSSP logo_MK_7Feb2019_v2</title><path class="cls-1" d="M1572.84,923.54v-.17c0-13.22,9.37-24.08,22.6-24.08,14.71,0,22.15,11.56,22.15,24.87,0,1-.08,1.92-.17,3h-34c1.14,7.54,6.48,11.74,13.31,11.74,5.17,0,8.85-1.93,12.52-5.52l6.22,5.52a23.4,23.4,0,0,1-18.91,8.67C1583.18,947.54,1572.84,937.82,1572.84,923.54Zm34.24-3.41c-.7-6.83-4.72-12.17-11.73-12.17-6.48,0-11,5-12,12.17Z" transform="translate(-295.22 -865.57)"/><path class="cls-1" d="M1626.52,900.25h10.6v7.09c3-4.29,7.27-8.05,14.45-8.05,10.42,0,16.46,7,16.46,17.69v29.51h-10.59V920.22c0-7.18-3.6-11.3-9.9-11.3-6.13,0-10.42,4.29-10.42,11.47v26.1h-10.6Z" transform="translate(-295.22 -865.57)"/><path class="cls-1" d="M1681.25,933.7V909.36h-5.87v-9.11h5.87v-12.7h10.6v12.7h12.43v9.11h-12.43V932c0,4.12,2.1,5.78,5.69,5.78a14.27,14.27,0,0,0,6.57-1.58v8.67a18.33,18.33,0,0,1-9.55,2.37C1686.77,947.28,1681.25,943.86,1681.25,933.7Z" transform="translate(-295.22 -865.57)"/><path class="cls-1" d="M1713.3,900.25h10.6v10.42c2.89-6.92,8.23-11.65,16.37-11.3v11.21h-.61c-9.28,0-15.76,6-15.76,18.31v17.6h-10.6Z" transform="translate(-295.22 -865.57)"/><path class="cls-1" d="M1743.6,923.54v-.17c0-13.22,9.37-24.08,22.59-24.08,14.72,0,22.16,11.56,22.16,24.87,0,1-.09,1.92-.18,3h-34c1.14,7.54,6.49,11.74,13.32,11.74,5.16,0,8.84-1.93,12.52-5.52l6.22,5.52a23.4,23.4,0,0,1-18.92,8.67C1753.93,947.54,1743.6,937.82,1743.6,923.54Zm34.24-3.41c-.7-6.83-4.73-12.17-11.73-12.17-6.48,0-11,5-12,12.17Z" transform="translate(-295.22 -865.57)"/><path class="cls-1" d="M1824.16,909.36h-5.87v-8.85h5.87V897.1c0-5.08,1.31-8.94,3.76-11.39s5.87-3.68,10.43-3.68a28.41,28.41,0,0,1,8.58,1.23v8.93a18.62,18.62,0,0,0-6.22-1.14c-4,0-6.13,2.19-6.13,7v2.54h12.26v8.76h-12.08v37.13h-10.6Z" transform="translate(-295.22 -865.57)"/><path class="cls-1" d="M1849.55,923.63v-.17c0-13.23,10.51-24.17,24.7-24.17s24.61,10.77,24.61,24v.18c0,13.13-10.51,24.08-24.79,24.08C1860,947.54,1849.55,936.77,1849.55,923.63Zm38.71,0v-.17c0-8.15-5.87-14.89-14.19-14.89-8.49,0-13.92,6.65-13.92,14.71v.18c0,8,5.87,14.8,14.1,14.8C1882.83,938.26,1888.26,931.6,1888.26,923.63Z" transform="translate(-295.22 -865.57)"/><path class="cls-1" d="M1907.87,900.25h10.6v10.42c2.89-6.92,8.23-11.65,16.38-11.3v11.21h-.62c-9.28,0-15.76,6-15.76,18.31v17.6h-10.6Z" transform="translate(-295.22 -865.57)"/><path class="cls-1" d="M1962.78,885.19h11.91l18.47,47.11,18.4-47.11h11.64l-25.39,61.74h-9.55Z" transform="translate(-295.22 -865.57)"/><path class="cls-1" d="M2029.15,883.08h11.39v10.08h-11.39Zm.44,17.17h10.6v46.24h-10.6Z" transform="translate(-295.22 -865.57)"/><path class="cls-1" d="M2048.51,940.45l4.73-7.19c5.07,3.77,10.42,5.7,15.15,5.7,4.55,0,7.18-1.93,7.18-5v-.18c0-3.59-4.91-4.82-10.34-6.48-6.83-1.93-14.45-4.73-14.45-13.57v-.18c0-8.76,7.27-14.1,16.47-14.1a32.08,32.08,0,0,1,17,5.26l-4.21,7.53c-4.46-2.72-9.19-4.38-13.05-4.38-4.11,0-6.48,1.93-6.48,4.55v.18c0,3.41,5,4.81,10.43,6.57,6.74,2.1,14.36,5.16,14.36,13.48v.18c0,9.72-7.53,14.53-17.17,14.53A32.47,32.47,0,0,1,2048.51,940.45Z" transform="translate(-295.22 -865.57)"/><path class="cls-1" d="M2094.57,883.08H2106v10.08h-11.38Zm.43,17.17h10.6v46.24H2095Z" transform="translate(-295.22 -865.57)"/><path class="cls-1" d="M2115.14,923.63v-.17c0-13.23,10.51-24.17,24.7-24.17s24.61,10.77,24.61,24v.18c0,13.13-10.51,24.08-24.79,24.08C2125.57,947.54,2115.14,936.77,2115.14,923.63Zm38.71,0v-.17c0-8.15-5.87-14.89-14.19-14.89-8.49,0-13.92,6.65-13.92,14.71v.18c0,8,5.87,14.8,14.1,14.8C2148.42,938.26,2153.85,931.6,2153.85,923.63Z" transform="translate(-295.22 -865.57)"/><path class="cls-1" d="M2173.46,900.25h10.6v7.09c3-4.29,7.27-8.05,14.45-8.05,10.42,0,16.46,7,16.46,17.69v29.51h-10.59V920.22c0-7.18-3.59-11.3-9.9-11.3-6.13,0-10.42,4.29-10.42,11.47v26.1h-10.6Z" transform="translate(-295.22 -865.57)"/><path class="cls-1" d="M2222.33,954.72c5.34-1.05,7.88-3.77,7.53-8.23h-4.56V934.4H2237v10.25c0,9.72-4.64,13.84-13.49,14.62Z" transform="translate(-295.22 -865.57)"/><path class="cls-1" d="M1567.68,997.83h10.59v7.71c3.42-4.82,8.24-8.67,15.77-8.67,10.86,0,21.45,8.58,21.45,24v.17c0,15.33-10.51,24-21.45,24-7.71,0-12.53-3.86-15.77-8.15v21.2h-10.59Zm37,23.21v-.17c0-8.94-6-14.8-13.22-14.8S1578,1012,1578,1020.87v.17c0,8.85,6.31,14.8,13.49,14.8S1604.72,1030.15,1604.72,1021Z" transform="translate(-295.22 -865.57)"/><path class="cls-1" d="M1622.14,1021.13V1021c0-13.22,9.37-24.08,22.6-24.08,14.71,0,22.15,11.56,22.15,24.87,0,1-.08,1.93-.17,3h-34c1.14,7.53,6.48,11.73,13.31,11.73,5.17,0,8.85-1.92,12.52-5.51l6.22,5.51a23.38,23.38,0,0,1-18.91,8.68C1632.48,1045.13,1622.14,1035.4,1622.14,1021.13Zm34.24-3.42c-.7-6.83-4.72-12.17-11.73-12.17-6.48,0-11,5-12,12.17Z" transform="translate(-295.22 -865.57)"/><path class="cls-1" d="M1673.28,1021.13V1021c0-13.22,9.37-24.08,22.6-24.08,14.71,0,22.15,11.56,22.15,24.87,0,1-.09,1.93-.17,3h-34c1.14,7.53,6.48,11.73,13.31,11.73,5.17,0,8.84-1.92,12.52-5.51l6.22,5.51a23.38,23.38,0,0,1-18.92,8.68C1683.62,1045.13,1673.28,1035.4,1673.28,1021.13Zm34.24-3.42c-.7-6.83-4.73-12.17-11.73-12.17-6.48,0-11,5-12,12.17Z" transform="translate(-295.22 -865.57)"/><path class="cls-1" d="M1724.42,1021.22V1021a23.87,23.87,0,0,1,24.08-24.17c8.67,0,14.1,3.24,18.48,8l-6.65,7.09c-3.24-3.41-6.66-5.78-11.91-5.78-7.71,0-13.4,6.66-13.4,14.72v.17c0,8.23,5.69,14.8,13.83,14.8,5,0,8.67-2.28,12-5.69l6.39,6.3c-4.55,5.08-9.89,8.68-18.91,8.68A23.61,23.61,0,0,1,1724.42,1021.22Z" transform="translate(-295.22 -865.57)"/><path class="cls-1" d="M1775.21,980.14h10.6v24.79c3-4.29,7.26-8.06,14.45-8.06,10.42,0,16.46,7,16.46,17.69v29.51h-10.6V1017.8c0-7.18-3.59-11.3-9.89-11.3-6.13,0-10.42,4.3-10.42,11.48v26.09h-10.6Z" transform="translate(-295.22 -865.57)"/><path class="cls-1" d="M1849.2,1030.76v-.17c0-10,7.8-14.89,19.09-14.89a38.59,38.59,0,0,1,12.44,1.93v-1.14c0-6.57-4-10.07-11.47-10.07a32.26,32.26,0,0,0-13.23,2.89l-2.8-8.32a39.41,39.41,0,0,1,17.43-3.77c6.92,0,12.08,1.84,15.32,5.17,3.42,3.33,5,8.23,5,14.27v27.41h-10.34v-5.78a18.78,18.78,0,0,1-15.06,6.75C1856.91,1045,1849.2,1040.05,1849.2,1030.76Zm31.7-3.32v-3.16a29.34,29.34,0,0,0-10.5-1.84c-6.84,0-10.86,2.89-10.86,7.71v.17c0,4.47,3.94,7,9,7C1875.56,1037.33,1880.9,1033.3,1880.9,1027.44Z" transform="translate(-295.22 -865.57)"/><path class="cls-1" d="M1901.92,997.83h10.59v7.1c3-4.29,7.27-8.06,14.45-8.06,10.43,0,16.47,7,16.47,17.69v29.51h-10.6V1017.8c0-7.18-3.59-11.3-9.89-11.3-6.13,0-10.43,4.3-10.43,11.48v26.09h-10.59Z" transform="translate(-295.22 -865.57)"/><path class="cls-1" d="M1952.09,1021v-.17c0-15.33,10.42-24,21.46-24,7.62,0,12.43,3.77,15.76,8.15V980.14h10.6v63.93h-10.6v-7.7c-3.41,4.81-8.23,8.67-15.76,8.67C1962.69,1045,1952.09,1036.37,1952.09,1021Zm37.4,0v-.17c0-8.94-6.31-14.8-13.4-14.8-7.27,0-13.31,5.6-13.31,14.8v.17c0,8.93,6.13,14.8,13.31,14.8S1989.49,1029.89,1989.49,1021Z" transform="translate(-295.22 -865.57)"/><path class="cls-1" d="M2090.45,980.67h11.38v10.07h-11.38Zm.44,17.16h10.59v46.24h-10.59Z" transform="translate(-295.22 -865.57)"/><path class="cls-1" d="M2113.48,1052.74l3.94-8a30.27,30.27,0,0,0,16.46,4.91c9.46,0,14.63-4.91,14.63-14.19v-3.59c-3.86,5-8.67,8.5-16.29,8.5-10.86,0-21-8.06-21-21.64v-.17c0-13.66,10.25-21.72,21-21.72,7.79,0,12.61,3.59,16.2,7.88v-6.92H2159v36.79c0,7.79-2,13.57-5.87,17.42-4.2,4.21-10.68,6.22-19,6.22A39.84,39.84,0,0,1,2113.48,1052.74Zm35.12-34.06v-.18c0-7.53-6.22-12.7-13.58-12.7s-13.13,5.08-13.13,12.7v.18c0,7.53,5.86,12.7,13.13,12.7S2148.6,1026.21,2148.6,1018.68Z" transform="translate(-295.22 -865.57)"/><path class="cls-1" d="M2170.57,997.83h10.6v7.1c3-4.29,7.27-8.06,14.45-8.06,10.42,0,16.46,7,16.46,17.69v29.51h-10.59V1017.8c0-7.18-3.6-11.3-9.9-11.3-6.13,0-10.42,4.3-10.42,11.48v26.09h-10.6Z" transform="translate(-295.22 -865.57)"/><path class="cls-1" d="M2220.05,1030.76v-.17c0-10,7.79-14.89,19.09-14.89a38.57,38.57,0,0,1,12.43,1.93v-1.14c0-6.57-4-10.07-11.47-10.07a32.17,32.17,0,0,0-13.22,2.89l-2.81-8.32a39.44,39.44,0,0,1,17.43-3.77c6.92,0,12.09,1.84,15.33,5.17,3.41,3.33,5,8.23,5,14.27v27.41h-10.33v-5.78a18.8,18.8,0,0,1-15.07,6.75C2227.75,1045,2220.05,1040.05,2220.05,1030.76Zm31.7-3.32v-3.16a29.44,29.44,0,0,0-10.51-1.84c-6.83,0-10.86,2.89-10.86,7.71v.17c0,4.47,3.94,7,9,7C2246.41,1037.33,2251.75,1033.3,2251.75,1027.44Z" transform="translate(-295.22 -865.57)"/><path class="cls-1" d="M2273.37,980.14H2284v63.93h-10.6Z" transform="translate(-295.22 -865.57)"/><path class="cls-1" d="M1514.61,1080.36h24.17c14.36,0,23.3,8.14,23.3,20.49v.18c0,13.75-11,20.93-24.52,20.93h-12.18v19.7h-10.77Zm23.3,31.87c8.14,0,13.22-4.55,13.22-10.94v-.18c0-7.18-5.17-10.94-13.22-10.94h-12.53v22.06Z" transform="translate(-295.22 -865.57)"/><path class="cls-1" d="M1570.13,1095.42h10.6v10.42c2.89-6.92,8.23-11.65,16.37-11.3v11.21h-.61c-9.28,0-15.76,6-15.76,18.31v17.6h-10.6Z" transform="translate(-295.22 -865.57)"/><path class="cls-1" d="M1600.43,1118.8v-.17c0-13.23,10.51-24.17,24.69-24.17s24.61,10.77,24.61,24v.18c0,13.13-10.51,24.08-24.78,24.08C1610.85,1142.71,1600.43,1131.94,1600.43,1118.8Zm38.7,0v-.17c0-8.15-5.86-14.89-14.18-14.89-8.5,0-13.93,6.66-13.93,14.71v.18c0,8,5.87,14.8,14.1,14.8C1633.71,1133.43,1639.13,1126.77,1639.13,1118.8Z" transform="translate(-295.22 -865.57)"/><path class="cls-1" d="M1656.21,1118.8v-.17a23.86,23.86,0,0,1,24.08-24.17c8.67,0,14.1,3.24,18.48,8l-6.66,7.09c-3.24-3.42-6.65-5.78-11.91-5.78-7.7,0-13.4,6.66-13.4,14.71v.18c0,8.23,5.7,14.8,13.84,14.8,5,0,8.67-2.28,12-5.69l6.39,6.3c-4.55,5.08-9.89,8.67-18.91,8.67A23.61,23.61,0,0,1,1656.21,1118.8Z" transform="translate(-295.22 -865.57)"/><path class="cls-1" d="M1703.14,1118.72v-.18c0-13.22,9.37-24.08,22.6-24.08,14.71,0,22.15,11.56,22.15,24.87,0,1-.08,1.93-.17,3h-34c1.14,7.53,6.48,11.73,13.31,11.73,5.17,0,8.85-1.93,12.53-5.52l6.21,5.52a23.37,23.37,0,0,1-18.91,8.67C1713.48,1142.71,1703.14,1133,1703.14,1118.72Zm34.25-3.42c-.7-6.83-4.73-12.17-11.74-12.17-6.48,0-11,5-12,12.17Z" transform="translate(-295.22 -865.57)"/><path class="cls-1" d="M1753.06,1135.62l4.73-7.18c5.08,3.76,10.42,5.69,15.15,5.69,4.55,0,7.18-1.93,7.18-5V1129c0-3.59-4.91-4.81-10.34-6.48-6.83-1.93-14.45-4.73-14.45-13.57v-.18c0-8.75,7.27-14.1,16.47-14.1a32.08,32.08,0,0,1,17,5.26l-4.21,7.53c-4.46-2.72-9.19-4.38-13-4.38-4.11,0-6.48,1.93-6.48,4.55v.18c0,3.41,5,4.82,10.43,6.57,6.74,2.1,14.36,5.16,14.36,13.48v.18c0,9.72-7.53,14.54-17.17,14.54A32.51,32.51,0,0,1,1753.06,1135.62Z" transform="translate(-295.22 -865.57)"/><path class="cls-1" d="M1794.3,1135.62l4.73-7.18c5.08,3.76,10.42,5.69,15.15,5.69,4.55,0,7.18-1.93,7.18-5V1129c0-3.59-4.9-4.81-10.33-6.48-6.83-1.93-14.45-4.73-14.45-13.57v-.18c0-8.75,7.27-14.1,16.46-14.1a32.05,32.05,0,0,1,17,5.26l-4.2,7.53c-4.47-2.72-9.2-4.38-13-4.38-4.12,0-6.48,1.93-6.48,4.55v.18c0,3.41,5,4.82,10.42,6.57,6.74,2.1,14.36,5.16,14.36,13.48v.18c0,9.72-7.53,14.54-17.16,14.54A32.51,32.51,0,0,1,1794.3,1135.62Z" transform="translate(-295.22 -865.57)"/><path class="cls-1" d="M1840.36,1078.26h11.39v10.07h-11.39Zm.44,17.16h10.6v46.24h-10.6Z" transform="translate(-295.22 -865.57)"/><path class="cls-1" d="M1863.48,1095.42h10.59v7.09c3-4.29,7.27-8,14.45-8,10.43,0,16.47,7,16.47,17.69v29.51h-10.6v-26.27c0-7.18-3.59-11.3-9.89-11.3-6.13,0-10.43,4.29-10.43,11.47v26.1h-10.59Z" transform="translate(-295.22 -865.57)"/><path class="cls-1" d="M1915.93,1150.33l3.94-8a30.27,30.27,0,0,0,16.47,4.9c9.45,0,14.62-4.9,14.62-14.18v-3.59c-3.85,5-8.67,8.49-16.29,8.49-10.86,0-21-8-21-21.63v-.17c0-13.67,10.25-21.72,21-21.72,7.8,0,12.61,3.59,16.2,7.88v-6.92h10.6v36.78c0,7.8-2,13.58-5.87,17.43-4.2,4.2-10.68,6.22-19,6.22A39.86,39.86,0,0,1,1915.93,1150.33Zm35.12-34.07v-.17c0-7.53-6.22-12.7-13.58-12.7s-13.13,5.08-13.13,12.7v.17c0,7.53,5.87,12.7,13.13,12.7S1951.05,1123.79,1951.05,1116.26Z" transform="translate(-295.22 -865.57)"/><path class="cls-1" d="M2045.1,1026.93a30.74,30.74,0,0,0,2.55,2.64,24.38,24.38,0,0,0,3.31,2.6,19,19,0,0,0,4.12,2,15.59,15.59,0,0,0,5.15.8c3.52,0,6.14-.8,7.84-2.42a7.73,7.73,0,0,0,2.55-5.82,7.6,7.6,0,0,0-.72-3.36,6.63,6.63,0,0,0-2.41-2.59,18.91,18.91,0,0,0-4.44-2,61.68,61.68,0,0,0-6.76-1.7,23.5,23.5,0,0,1-7.12-2.51,17.88,17.88,0,0,1-5-4,16.08,16.08,0,0,1-3-5.15,17.42,17.42,0,0,1,.26-12.27,14.91,14.91,0,0,1,3.86-5.46,19.32,19.32,0,0,1,6.49-3.8,26.45,26.45,0,0,1,9.18-1.44,27.14,27.14,0,0,1,8.15,1.08,24.58,24.58,0,0,1,5.68,2.5,16.74,16.74,0,0,1,3.54,2.83c.84.92,1.43,1.59,1.79,2l-7.43,7c-.3-.24-.78-.68-1.43-1.3a14.29,14.29,0,0,0-2.47-1.84,19.14,19.14,0,0,0-3.53-1.61,14.11,14.11,0,0,0-4.66-.72,11.6,11.6,0,0,0-4,.63,8.88,8.88,0,0,0-2.82,1.61,6.37,6.37,0,0,0-1.66,2.2,5.56,5.56,0,0,0-.54,2.28,6.75,6.75,0,0,0,.59,2.87,6.28,6.28,0,0,0,2,2.32,13.53,13.53,0,0,0,3.8,1.93,44.08,44.08,0,0,0,6.09,1.57,31.91,31.91,0,0,1,6.72,2.15,20.63,20.63,0,0,1,5.69,3.71,17.2,17.2,0,0,1,3.94,5.55,19,19,0,0,1,1.47,7.84,16.23,16.23,0,0,1-1.61,7.25,18.4,18.4,0,0,1-4.48,5.83,20.56,20.56,0,0,1-6.8,3.89,25.64,25.64,0,0,1-8.6,1.39,28.26,28.26,0,0,1-8.1-1.08,30.29,30.29,0,0,1-6.54-2.73,26.64,26.64,0,0,1-5-3.62,37,37,0,0,1-3.53-3.76Z" transform="translate(-295.22 -865.57)"/><path class="cls-1" d="M1520.63,1026.93a30.74,30.74,0,0,0,2.55,2.64,25,25,0,0,0,3.31,2.6,19,19,0,0,0,4.12,2,15.59,15.59,0,0,0,5.15.8c3.52,0,6.14-.8,7.84-2.42a7.73,7.73,0,0,0,2.55-5.82,7.6,7.6,0,0,0-.72-3.36,6.55,6.55,0,0,0-2.41-2.59,18.91,18.91,0,0,0-4.44-2,61.68,61.68,0,0,0-6.76-1.7,23.5,23.5,0,0,1-7.12-2.51,18,18,0,0,1-5-4,16.08,16.08,0,0,1-3-5.15,17.29,17.29,0,0,1-1-5.77,17.06,17.06,0,0,1,1.26-6.5,14.77,14.77,0,0,1,3.85-5.46,19.32,19.32,0,0,1,6.49-3.8,26.49,26.49,0,0,1,9.18-1.44,27.14,27.14,0,0,1,8.15,1.08,24.58,24.58,0,0,1,5.68,2.5,16.74,16.74,0,0,1,3.54,2.83c.84.92,1.43,1.59,1.79,2l-7.43,7c-.3-.24-.78-.68-1.43-1.3a14.29,14.29,0,0,0-2.47-1.84,19.14,19.14,0,0,0-3.53-1.61,14.11,14.11,0,0,0-4.66-.72,11.6,11.6,0,0,0-4,.63,9,9,0,0,0-2.82,1.61,6.37,6.37,0,0,0-1.66,2.2,5.54,5.54,0,0,0-.53,2.28,6.75,6.75,0,0,0,.58,2.87,6.28,6.28,0,0,0,2,2.32,13.53,13.53,0,0,0,3.8,1.93,44.08,44.08,0,0,0,6.09,1.57,31.91,31.91,0,0,1,6.72,2.15,20.63,20.63,0,0,1,5.69,3.71,17.2,17.2,0,0,1,3.94,5.55,19,19,0,0,1,1.47,7.84,16.23,16.23,0,0,1-1.61,7.25,18.4,18.4,0,0,1-4.48,5.83,20.46,20.46,0,0,1-6.8,3.89,25.6,25.6,0,0,1-8.6,1.39,28.31,28.31,0,0,1-8.1-1.08,30.29,30.29,0,0,1-6.54-2.73,26.64,26.64,0,0,1-5-3.62,37,37,0,0,1-3.53-3.76Z" transform="translate(-295.22 -865.57)"/><path class="cls-1" d="M1568.81,935.13a22.7,22.7,0,0,1-3.72,4.21,31.43,31.43,0,0,1-5.6,4,34.09,34.09,0,0,1-7.07,3,27.93,27.93,0,0,1-8.15,1.16,31.45,31.45,0,0,1-12.27-2.32,28.63,28.63,0,0,1-9.58-6.5,29.5,29.5,0,0,1-6.27-9.8,35,35,0,0,1,0-24.63,30.71,30.71,0,0,1,6.31-10,30,30,0,0,1,22.17-9.31,32.35,32.35,0,0,1,8.06.94,29.52,29.52,0,0,1,6.67,2.55,24.72,24.72,0,0,1,5.33,3.81,32.5,32.5,0,0,1,4.12,4.7l-8,7.07a24.82,24.82,0,0,0-6.67-6.62,16.94,16.94,0,0,0-9.54-2.51,17.42,17.42,0,0,0-7.88,1.74,18.69,18.69,0,0,0-6,4.66A20.49,20.49,0,0,0,1527,908a25.55,25.55,0,0,0-1.3,8.19,24.41,24.41,0,0,0,1.3,8.06,19.47,19.47,0,0,0,3.72,6.54,17.81,17.81,0,0,0,5.77,4.39,17.34,17.34,0,0,0,7.57,1.61,21.13,21.13,0,0,0,6.58-.9,17.48,17.48,0,0,0,7.88-5.06c.87-1,1.66-1.83,2.38-2.55Z" transform="translate(-295.22 -865.57)"/><rect class="cls-1" x="1161.95" width="14" height="295.89"/><path class="cls-1" d="M1211,889.12H1314.5c60.46,0,97,35.84,97,87.61v.72c0,58.65-45.61,89-102.45,89h-42.35v75H1211Zm99.91,127.79c27.88,0,44.17-16.65,44.17-38.37v-.73c0-25-17.38-38.37-45.25-38.37h-43.08v77.47Z" transform="translate(-295.22 -865.57)"/><path class="cls-1" d="M1017.18,1064a119.61,119.61,0,0,0,11.45,10.7,96.09,96.09,0,0,0,14.64,9.95,86.08,86.08,0,0,0,17.65,7.32,72.06,72.06,0,0,0,20.46,2.82,44.78,44.78,0,0,0,12.77-1.88,41.4,41.4,0,0,0,11.64-5.44,29.31,29.31,0,0,0,8.45-8.64,21.09,21.09,0,0,0,3.19-11.45q0-13.89-13.52-21.59t-42.8-15.21a112.51,112.51,0,0,1-26.47-9.76,82.88,82.88,0,0,1-21-15.39,65.18,65.18,0,0,1-13.71-20.66,66.38,66.38,0,0,1-4.88-25.9,78.33,78.33,0,0,1,5.63-29.67,68.9,68.9,0,0,1,17.09-24.59q11.44-10.69,28.53-16.9t40.37-6.19q19.14,0,33.79,3.94a121.73,121.73,0,0,1,25,9.39,86.39,86.39,0,0,1,16.9,11.26q6.56,5.84,10,9.2l-32.67,36q-4.14-3.39-9.57-7.32a88.44,88.44,0,0,0-12.21-7.33A82.89,82.89,0,0,0,1103,931a63.36,63.36,0,0,0-17.08-2.25,38.35,38.35,0,0,0-11.83,1.88,40.62,40.62,0,0,0-10.51,5.07,26.54,26.54,0,0,0-7.51,7.5,16.57,16.57,0,0,0-2.82,9.2q0,12.78,13.52,20.65t37.17,13.15a165.82,165.82,0,0,1,27.22,9.2,89.27,89.27,0,0,1,23.84,15.2,70.44,70.44,0,0,1,16.9,23.09q6.38,13.71,6.38,33.23a65.84,65.84,0,0,1-7.51,31.17,79.21,79.21,0,0,1-20.46,24.78,95.7,95.7,0,0,1-30.41,16.33,118.64,118.64,0,0,1-37.74,5.82,151.32,151.32,0,0,1-34.16-3.57,139.13,139.13,0,0,1-27.79-9.38,125.21,125.21,0,0,1-22.34-13.33,121.55,121.55,0,0,1-17.08-15.4Z" transform="translate(-295.22 -865.57)"/><path class="cls-1" d="M804.84,1064a119.61,119.61,0,0,0,11.45,10.7,96.59,96.59,0,0,0,14.64,9.95,86.08,86.08,0,0,0,17.65,7.32,72.06,72.06,0,0,0,20.46,2.82,44.78,44.78,0,0,0,12.77-1.88,41.4,41.4,0,0,0,11.64-5.44,29.31,29.31,0,0,0,8.45-8.64,21.09,21.09,0,0,0,3.19-11.45q0-13.89-13.52-21.59t-42.8-15.21a112.51,112.51,0,0,1-26.47-9.76,82.88,82.88,0,0,1-21-15.39,65.32,65.32,0,0,1-13.7-20.66,66.2,66.2,0,0,1-4.89-25.9,78.14,78.14,0,0,1,5.64-29.67,68.74,68.74,0,0,1,17.08-24.59q11.45-10.69,28.54-16.9t40.36-6.19q19.16,0,33.79,3.94a121.51,121.51,0,0,1,25,9.39A86.09,86.09,0,0,1,950,906.06c4.37,3.89,7.7,7,9.95,9.2l-32.67,36q-4.14-3.39-9.57-7.32a87.85,87.85,0,0,0-12.21-7.33A82.89,82.89,0,0,0,890.63,931a63.31,63.31,0,0,0-17.08-2.25,38.35,38.35,0,0,0-11.83,1.88,40.78,40.78,0,0,0-10.51,5.07,26.81,26.81,0,0,0-7.51,7.5,16.57,16.57,0,0,0-2.82,9.2q0,12.78,13.52,20.65t37.17,13.15a165.5,165.5,0,0,1,27.22,9.2,89.17,89.17,0,0,1,23.85,15.2,70.55,70.55,0,0,1,16.89,23.09q6.39,13.71,6.39,33.23a66,66,0,0,1-7.51,31.17,79.24,79.24,0,0,1-20.47,24.78,95.7,95.7,0,0,1-30.41,16.33,118.64,118.64,0,0,1-37.74,5.82,151.38,151.38,0,0,1-34.16-3.57,139.13,139.13,0,0,1-27.79-9.38,125.21,125.21,0,0,1-22.34-13.33,122.11,122.11,0,0,1-17.08-15.4Z" transform="translate(-295.22 -865.57)"/><path class="cls-1" d="M530.56,889.12h65l59.9,173.8,56.69-173.8h64.4l-89.79,252.06h-64.9Z" transform="translate(-295.22 -865.57)"/><path class="cls-1" d="M530.35,1092.3c-5.26,7.27-10.64,14.09-18.15,20.47a134,134,0,0,1-25,16.71,139.54,139.54,0,0,1-29.66,11.26,134.93,134.93,0,0,1-33.57,4.13q-28.53,0-52.19-9.76a120.56,120.56,0,0,1-40.73-27.22,122.34,122.34,0,0,1-26.48-41.31q-9.39-23.83-9.38-52.37a142.66,142.66,0,0,1,9.38-52,125.67,125.67,0,0,1,26.48-42.05A124.33,124.33,0,0,1,372,892q23.85-10.32,52.76-10.33c23.28,0,43.95,4.26,61.35,12.77s30.85,20.78,42.36,36.8L490.8,968.4a93.32,93.32,0,0,0-26.66-25.35c-10.26-6.38-22.86-9.57-37.13-9.57a72.14,72.14,0,0,0-30.41,6.2,66.22,66.22,0,0,0-22.91,17.08,77.83,77.83,0,0,0-14.45,25.34,95.45,95.45,0,0,0,0,61.39,73.68,73.68,0,0,0,14.45,24.78,67.51,67.51,0,0,0,22.53,16.53,70.6,70.6,0,0,0,29.66,6,89.75,89.75,0,0,0,23.81-2.81,70.75,70.75,0,0,0,17.64-7.51A69.33,69.33,0,0,0,481,1069.59q6-6.19,11.64-12.58Z" transform="translate(-295.22 -865.57)"/></svg>